<svg xmlns="http://www.w3.org/2000/svg" viewBox="0 0 512 512"><rect width="512" height="512" rx="112" fill="#F7EFE4"/><g transform="translate(56 40) scale(2)"><defs><clipPath id="s"><rect x="0" y="0" width="200" height="143"/></clipPath></defs><text x="22" y="152" font-family="Cormorant Garamond,Georgia,serif" font-weight="600" font-size="168" fill="#DD7357">C</text><text x="96" y="176" font-family="Cormorant Garamond,Georgia,serif" font-weight="600" font-size="150" fill="#DD7357">S</text><g fill="none" stroke="#A27D47" stroke-width="3.6" stroke-linecap="round" stroke-linejoin="round"><path d="M74 150 C 78 128, 82 108, 92 92"/><path d="M92 92 C 82 84, 70 84, 60 92"/><path d="M92 92 C 86 78, 76 74, 66 75"/><path d="M92 92 C 96 78, 106 73, 117 75"/><path d="M92 92 C 104 86, 114 89, 121 98"/><path d="M92 92 C 89 81, 92 70, 99 64"/></g><circle cx="122" cy="143" r="15" fill="#DD7357" clip-path="url(#s)"/><g fill="none" stroke="#A27D47" stroke-width="2.6" stroke-linecap="round"><path d="M62 149 Q 92 143 122 149 T 176 149"/><path d="M80 157 Q 104 152 128 157 T 166 157"/><path d="M96 164 Q 112 161 128 164"/></g></g></svg>
